<svg xmlns="http://www.w3.org/2000/svg" xmlns:xlink="http://www.w3.org/1999/xlink" width="34.496" height="15.58" viewBox="0 0 34.496 15.58">
  <defs>
    <clipPath id="clip-path">
      <rect id="Rectángulo_543" data-name="Rectángulo 543" width="34.496" height="15.58" transform="translate(0 0)" fill="none"/>
    </clipPath>
  </defs>
  <g id="Grupo_1192" data-name="Grupo 1192" transform="translate(0 0)">
    <g id="Grupo_1191" data-name="Grupo 1191" transform="translate(0 0.001)" clip-path="url(#clip-path)">
      <path id="Trazado_998" data-name="Trazado 998" d="M31.807,8.5H2.812c-.679,0-1.359.017-2.038,0C.321,8.477,0,8.268,0,7.757s.341-.707.79-.72c.679-.02,1.358,0,2.038,0H31.977c-.261-.294-.408-.478-.573-.644q-2.429-2.426-4.862-4.85A1.839,1.839,0,0,1,26.032.9a.837.837,0,0,1,.113-.733,1.036,1.036,0,0,1,.8-.15c.216.045.4.287.576.463q3.316,3.3,6.627,6.605a.819.819,0,0,1-.01,1.349c-2.232,2.214-4.446,4.447-6.683,6.656a1.878,1.878,0,0,1-.88.483.672.672,0,0,1-.539-.394,1.173,1.173,0,0,1,.205-.864c.819-.886,1.693-1.721,2.549-2.572q1.548-1.537,3.1-3.069L31.807,8.5" transform="translate(0 0)" fill="#bacc00"/>
    </g>
  </g>
</svg>
