<svg id="Grupo_1201" data-name="Grupo 1201" xmlns="http://www.w3.org/2000/svg" xmlns:xlink="http://www.w3.org/1999/xlink" width="80.125" height="82" viewBox="0 0 80.125 82">
  <defs>
    <clipPath id="clip-path">
      <rect id="Rectángulo_548" data-name="Rectángulo 548" width="80.125" height="82" fill="none"/>
    </clipPath>
  </defs>
  <g id="Grupo_1200" data-name="Grupo 1200" clip-path="url(#clip-path)">
    <path id="Trazado_1009" data-name="Trazado 1009" d="M15.881,72.889c-4.38,2.292-8.446,2.141-12.264-.935a10.257,10.257,0,0,1,.467-16.01,1.152,1.152,0,0,0,.5-1.479A35.585,35.585,0,0,1,5.87,31.984,35.752,35.752,0,0,1,23.58,12.5a51.962,51.962,0,0,1,5.184-2.13,1.308,1.308,0,0,0,1.007-1.225A10.283,10.283,0,0,1,44.7,1.172,9.783,9.783,0,0,1,50.174,8.92,1.491,1.491,0,0,0,51.356,10.4,35.006,35.006,0,0,1,67.98,21.424a35.763,35.763,0,0,1,8.276,17.915,36.15,36.15,0,0,1-.739,15.137,1.178,1.178,0,0,0,.512,1.477,10.285,10.285,0,0,1-3.915,18.2,9.2,9.2,0,0,1-7.155-.983c-.749-.452-1.106-.019-1.54.349A34.824,34.824,0,0,1,46.634,81.4,35.9,35.9,0,0,1,17.379,74.07c-.5-.39-1-.787-1.5-1.181m56.39-18.8c4.946-16.934-4.977-35.745-22.389-40.75-1.654,4.275-4.753,6.869-9.341,7.071-5.1.223-8.559-2.39-10.412-7.109C11.989,18.729,2.913,38.286,7.869,54.111c4.546-.619,8.371.635,10.909,4.591,2.591,4.04,2.115,8.093-.509,11.98,11.882,10.781,31.436,10.786,43.581,0-2.778-3.891-3.178-8-.58-12.061,2.548-3.983,6.415-5.275,11-4.536M10.193,57.1a7.112,7.112,0,1,0-.066,14.224A7.112,7.112,0,1,0,10.193,57.1m37-47a7.135,7.135,0,0,0-14.269.085,7.135,7.135,0,0,0,14.269-.085M69.912,71.334a7.092,7.092,0,1,0-7.1-7.04,7.122,7.122,0,0,0,7.1,7.04" transform="translate(0 0)" fill="#BBCD00"/>
  </g>
</svg>
