<svg xmlns="http://www.w3.org/2000/svg" width="27.068" height="27.257" viewBox="0 0 27.068 27.257">
  <path id="Trazado_997" data-name="Trazado 997" d="M27.754,314.363A15.921,15.921,0,0,1,19.62,311.5,31.274,31.274,0,0,1,7.492,297.833a14.506,14.506,0,0,1-.862-2.461c-.5-2.107-.362-4.048,1.505-5.56a25.537,25.537,0,0,0,2.318-2.3c.5-.522,1.019-.55,1.452-.029,1.33,1.6,2.7,3.184,3.885,4.89a2.337,2.337,0,0,1-.275,3.31,1.544,1.544,0,0,0-.208,1.384,14.676,14.676,0,0,0,8.353,8.313,1.68,1.68,0,0,0,1.468-.3,2.128,2.128,0,0,1,2.864-.321c1.851,1.275,3.579,2.734,5.3,4.183a1.132,1.132,0,0,1,.016,1.107,42.978,42.978,0,0,1-3.745,3.632,5.11,5.11,0,0,1-1.813.683M11.2,288.342c-.961,1.043-1.659,1.88-2.442,2.628a3.1,3.1,0,0,0-1.009,3.062,22.032,22.032,0,0,0,1,3.494,25.486,25.486,0,0,0,5.713,8.209c3.114,3.168,6.6,5.821,10.98,7.031,1.271.351,2.626.586,3.745-.332,1.03-.845,1.919-1.862,3.061-2.992-1.487-1.165-2.832-2.247-4.208-3.287a1.51,1.51,0,0,0-2.379.253,1.482,1.482,0,0,1-1.964.422,16.721,16.721,0,0,1-9.735-9.618,1.7,1.7,0,0,1,.462-2.3,1.285,1.285,0,0,0,.3-1.95c-1.088-1.5-2.238-2.947-3.52-4.622" transform="translate(-6.381 -287.106)" fill="#fff"/>
</svg>
