<svg id="Grupo_1195" data-name="Grupo 1195" xmlns="http://www.w3.org/2000/svg" xmlns:xlink="http://www.w3.org/1999/xlink" width="66.332" height="82" viewBox="0 0 66.332 82">
  <defs>
    <clipPath id="clip-path">
      <rect id="Rectángulo_544" data-name="Rectángulo 544" width="66.331" height="82" fill="none"/>
    </clipPath>
  </defs>
  <g id="Grupo_1194" data-name="Grupo 1194" clip-path="url(#clip-path)">
    <path id="Trazado_999" data-name="Trazado 999" d="M66.3,27.015c0,4.373-.093,8.748.022,13.118A30.5,30.5,0,0,1,61,57.992,65.6,65.6,0,0,1,47.98,72.065,103.6,103.6,0,0,1,34.458,81.59a2.263,2.263,0,0,1-2.582.01,93.253,93.253,0,0,1-21.81-17.464c-4.139-4.6-7.582-9.653-9.1-15.748A29.984,29.984,0,0,1,.057,41.5C-.039,31.283.015,21.068.016,10.855c0-1.363.226-1.676,1.512-2.041Q16.892,4.453,32.264.118a3.438,3.438,0,0,1,1.771,0q15.423,4.328,30.828,8.72c1.184.336,1.434.678,1.435,1.9q0,8.139,0,16.278M2.9,11.347c-.014.3-.031.486-.031.675,0,9.895-.014,19.789.016,29.684a21.247,21.247,0,0,0,.36,3.993c1.317,6.75,5.024,12.212,9.541,17.179A84.915,84.915,0,0,0,32.477,78.57a1.087,1.087,0,0,0,1.363-.007c3.41-2.353,6.934-4.553,10.237-7.049A58.4,58.4,0,0,0,59.428,55a25.113,25.113,0,0,0,4-12.913q.032-15.129.011-30.259a3.069,3.069,0,0,0-.067-.457c-.147-.054-.265-.106-.387-.141Q48.355,7.083,33.715,2.955a2.551,2.551,0,0,0-1.3.062Q25,5.075,17.594,7.178C12.713,8.558,7.836,9.946,2.9,11.347" transform="translate(0 0)" fill="#BBCD00"/>
    <path id="Trazado_1000" data-name="Trazado 1000" d="M74.372,60.393A19.953,19.953,0,1,1,54.4,40.51,19.957,19.957,0,0,1,74.372,60.393m-2.882-.007a17.071,17.071,0,1,0-17.1,16.975,16.978,16.978,0,0,0,17.1-16.975" transform="translate(-21.263 -24.991)" fill="#BBCD00"/>
    <path id="Trazado_1001" data-name="Trazado 1001" d="M69.047,85.129c2.933-2.743,5.8-5.424,8.665-8.1a5.83,5.83,0,0,1,1.037-.837,1.377,1.377,0,0,1,1.791,2.025,3.574,3.574,0,0,1-.447.495q-4.807,4.524-9.621,9.041c-1.079,1.011-1.715,1-2.788-.015q-2.362-2.236-4.716-4.481c-.162-.154-.328-.3-.476-.47a1.382,1.382,0,0,1-.049-1.984,1.362,1.362,0,0,1,1.974-.068c.8.68,1.53,1.443,2.292,2.169s1.524,1.449,2.338,2.223" transform="translate(-38.277 -46.872)" fill="#BBCD00"/>
  </g>
</svg>
