<svg id="Grupo_1197" data-name="Grupo 1197" xmlns="http://www.w3.org/2000/svg" xmlns:xlink="http://www.w3.org/1999/xlink" width="68.011" height="82" viewBox="0 0 68.011 82">
  <defs>
    <clipPath id="clip-path">
      <rect id="Rect치ngulo_546" data-name="Rect치ngulo 546" width="68.011" height="82" fill="none"/>
    </clipPath>
  </defs>
  <g id="Grupo_1196" data-name="Grupo 1196" clip-path="url(#clip-path)">
    <path id="Trazado_1002" data-name="Trazado 1002" d="M66.328,109.4c0-3.762.089-7.526-.034-11.284a4.14,4.14,0,0,1,2.72-4.165,24.806,24.806,0,0,1,8.611-2.174,50.04,50.04,0,0,1,15.07.5,33.114,33.114,0,0,1,5.627,1.743,4.037,4.037,0,0,1,2.627,4.212q-.136,11.188.005,22.38a4.282,4.282,0,0,1-2.768,4.325,25,25,0,0,1-8.156,2.09,47.974,47.974,0,0,1-15.072-.362,38.871,38.871,0,0,1-6.408-2.044,3.561,3.561,0,0,1-2.251-3.749c.093-3.822.028-7.648.028-11.472M99.1,100.152a45.318,45.318,0,0,1-30.977-.016c0,1.38.074,2.853-.023,4.315a2.063,2.063,0,0,0,1.469,2.318,36.248,36.248,0,0,0,5.162,1.654,46.361,46.361,0,0,0,17,.133,37.339,37.339,0,0,0,6.066-1.881c.518-.187,1.208-.792,1.245-1.252.145-1.791.059-3.6.059-5.271M68.127,116.559c0,1.363.065,2.887-.022,4.4a1.914,1.914,0,0,0,1.3,2.137,41.731,41.731,0,0,0,5.984,1.848,45.421,45.421,0,0,0,16.269-.012,39.053,39.053,0,0,0,6.167-1.867c.512-.181,1.185-.8,1.222-1.269.143-1.789.058-3.6.058-5.234a45.547,45.547,0,0,1-30.982-.006m0-8.19c0,1.372.061,2.9-.02,4.415a1.994,1.994,0,0,0,1.4,2.181,33.426,33.426,0,0,0,4.619,1.529,49.1,49.1,0,0,0,15.989.531,21.41,21.41,0,0,0,7.576-2.046c.542-.283,1.291-.821,1.333-1.295.156-1.812.063-3.646.063-5.3a45.429,45.429,0,0,1-30.959-.016m15.425-7.311a47.229,47.229,0,0,0,11.071-1.312A17.785,17.785,0,0,0,98.014,98.4a1.945,1.945,0,0,0,1-1.3c.018-.391-.579-.9-1.015-1.2a8.237,8.237,0,0,0-1.786-.818,36.764,36.764,0,0,0-12.858-1.806,38.919,38.919,0,0,0-10.694,1.253,17.325,17.325,0,0,0-3.7,1.54c-1.13.631-1.092,1.445,0,2.166a9.394,9.394,0,0,0,2.015.991c4.069,1.451,8.324,1.665,12.582,1.835" transform="translate(-32.944 -45.445)" fill="#BBCD00"/>
    <path id="Trazado_1003" data-name="Trazado 1003" d="M0,.015H4.416Q18.52.015,32.624,0a2.063,2.063,0,0,1,1.631.7q8.7,8.92,17.419,17.816a2.068,2.068,0,0,1,.6,1.27c.037,7.177.027,14.355.024,21.532,0,.245-.037.49-.059.771h-1.71V21.257H32.2V1.908H1.775V66H29.053v1.659H0ZM34.006,19.327H49.995L34.006,3.016Z" transform="translate(0 0)" fill="#BBCD00"/>
    <rect id="Rect치ngulo_545" data-name="Rect치ngulo 545" width="30.235" height="1.705" transform="translate(9.038 35.48)" fill="#BBCD00"/>
    <path id="Trazado_1004" data-name="Trazado 1004" d="M17.821,95.26V93.6h17.8V95.26Z" transform="translate(-8.856 -46.514)" fill="#BBCD00"/>
  </g>
</svg>
