<svg id="Grupo_1186" data-name="Grupo 1186" xmlns="http://www.w3.org/2000/svg" width="28.193" height="28.193" viewBox="0 0 28.193 28.193">
  <path id="Trazado_994" data-name="Trazado 994" d="M15.881,28.194A13.988,13.988,0,0,1,7.9,25.718L2.194,27.962,4.2,21.99A14.1,14.1,0,0,1,25.849,4.13a14.1,14.1,0,0,1-9.968,24.064M8.08,24.3l.278.2a12.85,12.85,0,1,0-2.947-2.974l.185.261L4.244,25.807Z" transform="translate(-1.784 -0.001)" fill="#BBCD00"/>
  <path id="Trazado_995" data-name="Trazado 995" d="M38.444,33.694a.578.578,0,0,1,.151.489c-.161,1.041-1.074,4.864-5.669,3.239-5.3-1.873-9.125-5.168-10.352-9.561s2.31-5.555,3.052-5.3,2.584,3.521,2.325,4.231-1.5,1.389-1.461,2.14c.034.637,4.724,5.305,6.056,4.934.915-.255,1.01-1.671,1.914-1.833a6.867,6.867,0,0,1,3.984,1.658" transform="translate(-16.406 -16.045)" fill="#BBCD00"/>
</svg>
