
<svg xmlns="http://www.w3.org/2000/svg" width="30.444" height="25.349" viewBox="0 0 30.444 25.349">
  <path id="Trazado_996" data-name="Trazado 996" d="M15.264,154.508q5.475,0,10.95,0a3.861,3.861,0,0,1,4.221,4.2q.019,8.47,0,16.939a3.86,3.86,0,0,1-4.218,4.2q-10.993.008-21.985,0a3.872,3.872,0,0,1-4.222-4.2q-.018-8.47,0-16.939a3.872,3.872,0,0,1,4.219-4.2q5.517-.01,11.035,0m12.618,9.343c-.415.184-.7.3-.973.434q-5.341,2.6-10.678,5.2a2.157,2.157,0,0,1-2.04-.01q-5.253-2.585-10.52-5.139c-.324-.158-.654-.3-1.012-.466a1.5,1.5,0,0,0-.09.311c0,3.906-.016,7.812,0,11.718,0,.934.5,1.385,1.463,1.392,1.91.014,3.82,0,5.73,0q8.253,0,16.506,0c1.069,0,1.6-.4,1.6-1.334.023-3.99.01-7.98.01-12.111m0-2.881c0-.879.027-1.733-.007-2.586a1.255,1.255,0,0,0-1.362-1.318c-.569-.02-1.14-.005-1.71-.005q-10.218,0-20.436,0c-1.447,0-1.8.363-1.806,1.831,0,.683,0,1.366,0,2.076,4.129,2.034,8.236,4.06,12.351,6.07a.805.805,0,0,0,.62,0q6.173-3.015,12.351-6.07" transform="translate(0 -154.506)" fill="#BBCD00"/>
</svg>
