<?xml version="1.0" encoding="UTF-8"?>
<svg id="Capa_1" data-name="Capa 1" xmlns="http://www.w3.org/2000/svg" viewBox="0 0 769.68 203.89">
  <defs>
    <style>
      .cls-1 {
        fill: #fff;
      }

      .cls-2 {
        fill: #cdde00;
      }

      .cls-3 {
        fill: none;
        stroke: #cdde00;
        stroke-miterlimit: 10;
        stroke-width: 18px;
      }
    </style>
  </defs>
  <path class="cls-2" d="m102.16,46.71c5.59,0,10.37.98,14.35,2.94,3.98,1.96,7.25,4.55,9.81,7.76,2.55,3.21,4.43,6.89,5.62,11.05,1.19,4.16,1.78,8.44,1.78,12.84v53.49h-21.4v-47.42c0-2.5-.18-5.11-.53-7.84-.36-2.73-1.13-5.2-2.32-7.4-1.19-2.2-2.83-4.01-4.9-5.44-2.08-1.43-4.84-2.14-8.29-2.14s-6.18.71-8.56,2.14c-2.38,1.43-4.34,3.27-5.88,5.53-1.55,2.26-2.68,4.79-3.39,7.58-.71,2.79-1.07,5.56-1.07,8.29v46.71h-21.4v-51.7c0-5.35-1.28-9.78-3.83-13.28-2.56-3.5-6.57-5.26-12.03-5.26-3.21,0-6,.69-8.38,2.05-2.38,1.37-4.31,3.12-5.79,5.26-1.49,2.14-2.62,4.61-3.39,7.4-.77,2.79-1.16,5.62-1.16,8.47v47.07H0V49.21h20.32v13.73h.36c.95-2.14,2.23-4.16,3.83-6.06,1.61-1.9,3.51-3.62,5.71-5.17,2.2-1.54,4.72-2.76,7.58-3.66s6-1.34,9.45-1.34c6.65,0,12.18,1.49,16.58,4.46,4.4,2.97,7.78,6.9,10.16,11.77,2.85-5.23,6.66-9.24,11.41-12.03,4.75-2.79,10.34-4.19,16.76-4.19Z"/>
  <path class="cls-2" d="m147.09,20.15c0-3.45,1.27-6.45,3.83-9,2.55-2.55,5.79-3.83,9.72-3.83s7.22,1.22,9.89,3.66c2.68,2.44,4.01,5.5,4.01,9.18s-1.34,6.75-4.01,9.18c-2.68,2.44-5.97,3.66-9.89,3.66s-7.16-1.28-9.72-3.83c-2.56-2.55-3.83-5.56-3.83-9Zm3.03,29.06h21.39v85.58h-21.39V49.21Z"/>
  <path class="cls-1" d="m275.63,134.79h-20.32v-12.84h-.36c-2.97,4.99-7.1,8.8-12.39,11.41-5.29,2.61-10.97,3.92-17.03,3.92-6.54,0-12.39-1.22-17.56-3.66-5.17-2.44-9.57-5.71-13.19-9.81-3.63-4.1-6.42-8.91-8.38-14.44-1.96-5.53-2.94-11.44-2.94-17.74s1.01-12.18,3.03-17.65c2.02-5.47,4.87-10.22,8.56-14.26,3.68-4.04,8.08-7.22,13.19-9.54,5.11-2.32,10.7-3.48,16.76-3.48,3.92,0,7.43.45,10.52,1.34,3.09.89,5.79,1.99,8.11,3.3,2.32,1.31,4.31,2.74,5.97,4.28,1.66,1.55,3.03,3.03,4.1,4.46h.53V0h21.4v134.79Zm-70.42-43.15c0,3.33.5,6.66,1.52,9.98,1.01,3.33,2.52,6.3,4.55,8.91,2.02,2.62,4.57,4.76,7.67,6.42,3.09,1.67,6.71,2.5,10.88,2.5,3.92,0,7.43-.8,10.52-2.41,3.09-1.61,5.73-3.71,7.93-6.33,2.2-2.61,3.86-5.56,4.99-8.83,1.13-3.27,1.69-6.57,1.69-9.89s-.57-6.66-1.69-9.98c-1.13-3.33-2.79-6.3-4.99-8.91-2.2-2.61-4.84-4.75-7.93-6.42-3.09-1.66-6.6-2.5-10.52-2.5-4.16,0-7.79.8-10.88,2.41-3.09,1.61-5.65,3.72-7.67,6.33-2.02,2.62-3.54,5.56-4.55,8.83-1.01,3.27-1.52,6.57-1.52,9.89Z"/>
  <path class="cls-1" d="m288.18,20.15c0-3.45,1.27-6.45,3.83-9,2.55-2.55,5.79-3.83,9.72-3.83s7.22,1.22,9.89,3.66c2.68,2.44,4.01,5.5,4.01,9.18s-1.34,6.75-4.01,9.18c-2.68,2.44-5.97,3.66-9.89,3.66s-7.16-1.28-9.72-3.83c-2.56-2.55-3.83-5.56-3.83-9Zm3.03,29.06h21.39v85.58h-21.39V49.21Z"/>
  <path class="cls-1" d="m329.71,49.21h20.32v13.73h.36c1.9-4.28,5.2-8.05,9.89-11.32,4.69-3.27,10.25-4.9,16.67-4.9,5.59,0,10.37.98,14.35,2.94,3.98,1.96,7.25,4.55,9.81,7.76,2.55,3.21,4.43,6.89,5.62,11.05,1.19,4.16,1.78,8.44,1.78,12.84v53.49h-21.39v-47.42c0-2.5-.18-5.11-.54-7.84-.36-2.73-1.13-5.2-2.32-7.4-1.19-2.2-2.83-4.01-4.9-5.44-2.08-1.43-4.84-2.14-8.29-2.14s-6.42.69-8.91,2.05c-2.5,1.37-4.55,3.12-6.15,5.26-1.6,2.14-2.82,4.61-3.65,7.4-.83,2.79-1.25,5.62-1.25,8.47v47.07h-21.4V49.21Z"/>
  <path class="cls-1" d="m506.22,93.07v2.85c0,.95-.06,1.9-.18,2.85h-65.08c.24,3.09,1.04,5.91,2.41,8.47,1.37,2.56,3.18,4.75,5.44,6.6,2.26,1.84,4.81,3.3,7.67,4.37s5.82,1.6,8.91,1.6c5.35,0,9.86-.98,13.55-2.94,3.68-1.96,6.71-4.66,9.09-8.11l14.26,11.41c-8.44,11.41-20.68,17.12-36.73,17.12-6.66,0-12.78-1.04-18.36-3.12-5.59-2.08-10.43-5.02-14.53-8.82-4.1-3.8-7.31-8.47-9.63-14-2.32-5.53-3.48-11.8-3.48-18.81s1.16-13.16,3.48-18.81c2.32-5.64,5.5-10.46,9.54-14.44,4.04-3.98,8.83-7.07,14.35-9.27,5.53-2.2,11.5-3.3,17.92-3.3,5.94,0,11.44.98,16.49,2.94,5.05,1.96,9.42,4.88,13.1,8.74,3.68,3.86,6.57,8.68,8.65,14.44,2.08,5.77,3.12,12.51,3.12,20.24Zm-21.39-9.63c0-2.73-.39-5.35-1.16-7.84-.77-2.5-1.99-4.69-3.66-6.6-1.67-1.9-3.77-3.42-6.33-4.55-2.56-1.13-5.56-1.69-9-1.69-6.42,0-11.86,1.93-16.31,5.79-4.46,3.86-6.93,8.82-7.4,14.89h43.86Z"/>
  <path class="cls-1" d="m517.98,49.21h20.5v16.76h.36c2.38-4.99,5.7-9.03,9.98-12.12,4.28-3.09,9.27-4.64,14.98-4.64.83,0,1.72.03,2.67.09.95.06,1.78.21,2.5.45v19.61c-1.43-.36-2.65-.59-3.66-.71-1.01-.12-1.99-.18-2.94-.18-4.88,0-8.8.89-11.77,2.67-2.97,1.78-5.29,3.92-6.95,6.42-1.67,2.5-2.79,5.05-3.39,7.67-.6,2.62-.89,4.7-.89,6.24v43.32h-21.39V49.21Z"/>
  <g>
    <path class="cls-1" d="m578.88,20.15c0-3.45,1.27-6.45,3.83-9,2.55-2.55,5.79-3.83,9.72-3.83s7.22,1.22,9.89,3.66c2.68,2.44,4.01,5.5,4.01,9.18s-1.34,6.75-4.01,9.18c-2.68,2.44-5.97,3.66-9.89,3.66s-7.16-1.28-9.72-3.83c-2.56-2.55-3.83-5.56-3.83-9Z"/>
    <rect class="cls-1" x="581.91" y="49.21" width="21.39" height="85.58"/>
  </g>
  <path class="cls-1" d="m615.71,66.32v-17.12h14.98v-24.78h21.04v24.78h21.4v17.12h-21.4v39.76c0,3.81.68,6.95,2.05,9.45,1.37,2.5,4.43,3.74,9.18,3.74,1.43,0,2.97-.15,4.64-.45,1.66-.29,3.15-.74,4.46-1.34l.71,16.76c-1.9.71-4.16,1.28-6.77,1.69-2.62.41-5.11.62-7.49.62-5.7,0-10.34-.8-13.91-2.41-3.57-1.6-6.39-3.8-8.47-6.6-2.08-2.79-3.51-6-4.28-9.63-.77-3.62-1.16-7.52-1.16-11.68v-39.94h-14.98Z"/>
  <path class="cls-1" d="m676.62,91.64c0-6.77,1.22-12.93,3.66-18.45,2.43-5.53,5.73-10.25,9.89-14.17,4.16-3.92,9.09-6.95,14.8-9.09,5.71-2.14,11.77-3.21,18.19-3.21s12.48,1.07,18.19,3.21c5.7,2.14,10.64,5.17,14.8,9.09,4.16,3.92,7.46,8.65,9.89,14.17,2.43,5.53,3.66,11.68,3.66,18.45s-1.22,12.96-3.66,18.54c-2.44,5.59-5.74,10.37-9.89,14.35-4.16,3.98-9.09,7.1-14.8,9.36-5.71,2.26-11.77,3.39-18.19,3.39s-12.48-1.13-18.19-3.39c-5.7-2.26-10.64-5.38-14.8-9.36-4.16-3.98-7.46-8.76-9.89-14.35-2.44-5.58-3.66-11.77-3.66-18.54Zm21.75,0c0,3.33.5,6.66,1.52,9.98,1.01,3.33,2.52,6.3,4.55,8.91,2.02,2.62,4.57,4.76,7.67,6.42,3.09,1.67,6.77,2.5,11.05,2.5s7.96-.83,11.05-2.5c3.09-1.66,5.64-3.8,7.67-6.42,2.02-2.61,3.53-5.58,4.55-8.91,1.01-3.33,1.52-6.66,1.52-9.98s-.51-6.62-1.52-9.89c-1.01-3.27-2.53-6.21-4.55-8.83-2.02-2.61-4.58-4.72-7.67-6.33-3.09-1.6-6.77-2.41-11.05-2.41s-7.96.8-11.05,2.41c-3.09,1.61-5.65,3.72-7.67,6.33-2.02,2.62-3.54,5.56-4.55,8.83-1.01,3.27-1.52,6.57-1.52,9.89Z"/>
  <path class="cls-3" d="m123.23,150.64c0,24.43-25.24,44.24-56.37,44.24s-56.37-19.81-56.37-44.24"/>
</svg>